<svg width="40" height="71" viewBox="0 0 40 71" fill="none" xmlns="http://www.w3.org/2000/svg">
<g clip-path="url(#clip0)">
<path d="M37.8182 31.7157H34.3636V28.6522C34.3636 27.3908 33.2727 26.3096 32 26.3096H8C6.72727 26.3096 5.63636 27.3908 5.63636 28.6522V31.7157H2.18182C0.909091 31.7157 0 32.6167 0 33.8781V57.8451C0 59.1065 0.909091 60.0075 2.18182 60.0075H5.63636V63.071C5.63636 64.3324 6.72727 65.4136 8 65.4136H32C33.2727 65.4136 34.3636 64.3324 34.3636 63.071V60.0075H37.8182C39.0909 60.0075 40 59.1065 40 57.8451V33.8781C40 32.6167 39.0909 31.7157 37.8182 31.7157ZM8.36364 29.1928H31.4545V31.7157H8.36364V29.1928ZM31.6364 34.4187V57.3045H8.36364V34.4187H31.6364ZM2.72727 57.3045V34.4187H5.63636V57.3045H2.72727ZM31.6364 62.5304H8.36364V60.0075H31.4545V62.5304H31.6364ZM37.2727 57.3045H34.3636V34.4187H37.2727V57.3045Z" fill="#A79582"/>
<path d="M9.99982 25.4085C10.3635 25.4085 10.7271 25.2283 10.9089 25.0481L13.0907 22.8857H26.9089L28.9089 24.8679C29.4544 25.4085 30.3635 25.4085 30.9089 24.8679C31.4544 24.3273 31.4544 23.4263 30.9089 22.8857L28.1816 20.1826H11.9998L9.09073 23.0659C8.54528 23.6065 8.54528 24.5075 9.09073 25.0481C9.45437 25.4085 9.818 25.4085 9.99982 25.4085Z" fill="#A79582"/>
<path d="M12.5453 13.6954H27.4544C28.1817 13.6954 28.7272 13.335 29.0908 12.6142C29.2726 11.8934 29.2726 11.1726 28.7272 10.8122L21.4544 3.60406C21.4544 3.42386 21.4544 3.42386 21.4544 3.24365V1.44162C21.4544 0.540609 20.7272 0 19.9999 0C19.2726 0 18.5453 0.540609 18.5453 1.44162V3.24365C18.5453 3.42386 18.5453 3.42386 18.5453 3.60406L11.2726 10.8122C10.909 11.1726 10.7272 11.8934 11.0908 12.6142C11.2726 13.1548 11.8181 13.6954 12.5453 13.6954ZM19.9999 6.1269L24.909 10.9924H14.909L19.9999 6.1269Z" fill="#A79582"/>
<path d="M11.8184 16.0383V17.8403C11.8184 18.5611 12.3638 19.282 13.2729 19.282C14.182 19.282 14.5456 18.5611 14.5456 17.8403V16.0383C14.5456 15.3175 14.0002 14.5967 13.0911 14.5967C12.182 14.5967 11.8184 15.1373 11.8184 16.0383Z" fill="#A79582"/>
<path d="M25.4541 16.0383V17.8403C25.4541 18.5611 25.9996 19.282 26.9086 19.282C27.8177 19.282 28.3632 18.7413 28.3632 17.8403V16.0383C28.3632 15.3175 27.8177 14.5967 26.9086 14.5967C25.9996 14.5967 25.4541 15.1373 25.4541 16.0383Z" fill="#A79582"/>
<path d="M18.7266 16.0383V17.8403C18.7266 18.5611 19.272 19.282 20.1811 19.282C21.0902 19.282 21.6357 18.7413 21.6357 17.8403V16.0383C21.6357 15.3175 21.0902 14.5967 20.1811 14.5967C19.272 14.5967 18.7266 15.1373 18.7266 16.0383Z" fill="#A79582"/>
<path d="M16.9086 66.4951C16.1814 66.4951 15.4541 67.0357 15.4541 67.9367V69.7388C15.4541 70.4596 15.9996 71.1804 16.9086 71.1804C17.8177 71.1804 18.3632 70.6398 18.3632 69.7388V67.9367C18.3632 67.0357 17.8177 66.4951 16.9086 66.4951Z" fill="#A79582"/>
<path d="M30.727 66.4951C29.9997 66.4951 29.2725 67.0357 29.2725 67.9367V69.7388C29.2725 70.4596 29.8179 71.1804 30.727 71.1804C31.6361 71.1804 32.1816 70.6398 32.1816 69.7388V67.9367C32.1816 67.0357 31.4543 66.4951 30.727 66.4951Z" fill="#A79582"/>
<path d="M23.8178 66.4951C23.0906 66.4951 22.3633 67.0357 22.3633 67.9367V69.7388C22.3633 70.4596 22.9087 71.1804 23.8178 71.1804C24.7269 71.1804 25.2724 70.6398 25.2724 69.7388V67.9367C25.2724 67.0357 24.7269 66.4951 23.8178 66.4951Z" fill="#A79582"/>
<path d="M10.1811 66.4951C9.45383 66.4951 8.72656 67.0357 8.72656 67.9367V69.7388C8.72656 70.4596 9.27202 71.1804 10.1811 71.1804C11.0902 71.1804 11.6357 70.6398 11.6357 69.7388V67.9367C11.4538 67.0357 10.9084 66.4951 10.1811 66.4951Z" fill="#A79582"/>
<path d="M19.9997 56.764C25.9997 56.764 30.727 51.8985 30.727 46.132C30.727 40.1853 25.8179 35.5 19.9997 35.5C14.1816 35.5 9.27246 40.3655 9.27246 46.132C9.27246 51.8985 13.9997 56.764 19.9997 56.764ZM19.9997 38.0228C24.3634 38.0228 27.9997 41.6269 27.9997 45.9518C27.9997 50.2766 24.3634 54.0609 19.9997 54.0609C15.6361 54.0609 11.9997 50.4568 11.9997 46.132C11.9997 41.8071 15.4543 38.0228 19.9997 38.0228Z" fill="#A79582"/>
<path d="M18.5454 47.3932C18.7272 47.5734 18.909 47.7536 19.2726 47.7536C19.4545 47.9338 19.6363 47.9338 19.9999 47.9338C20.7272 47.9338 21.4545 47.3932 21.4545 46.4922V41.4465C21.4545 40.7257 20.909 40.0049 19.9999 40.0049C19.0908 40.0049 18.5454 40.5455 18.5454 41.4465V43.6089L17.9999 43.2485C17.4545 42.7079 16.5454 42.7079 15.9999 43.2485C15.4545 43.7891 15.4545 44.6902 15.9999 45.2308L18.5454 47.3932Z" fill="#A79582"/>
</g>
<defs>
<clipPath id="clip0">
<rect width="40" height="71" fill="white"/>
</clipPath>
</defs>
</svg>
