<svg width="34" height="71" viewBox="0 0 34 71" fill="none" xmlns="http://www.w3.org/2000/svg">
<path d="M29.6364 55.2222H28.1818V52.4703C28.1818 51.3695 27.2727 50.4522 26.1818 50.4522H25.4545L24.5455 39.8114C24.5455 39.261 24.1818 38.8941 23.6364 38.7106L21.0909 37.9767L23.4545 29.5375C23.4545 29.354 23.4545 29.1705 23.4545 29.1705L23.6364 26.6021C23.6364 26.0517 23.0909 25.5013 22.3636 25.5013H11.6364C10.7273 24.2171 8.18182 20.5478 6.36364 18.1628C6.36364 17.7959 6 17.6124 5.63636 17.6124V13.0258C6.18182 13.0258 6.72727 12.6589 6.72727 12.1085L7.81818 6.78811C7.81818 6.42119 7.81818 6.05426 7.63636 5.8708C7.45455 5.50388 7.09091 5.32041 6.72727 5.32041H2.18182C1.81818 5.32041 1.45455 5.50388 1.27273 5.8708C1.09091 6.05426 0.909091 6.42119 0.909091 6.78811L2 12.1085C2.18182 12.6589 2.54545 13.0258 3.09091 13.0258V17.6124C2.72727 17.6124 2.36364 17.7959 2.18182 18.1628C2 18.5297 2 18.8966 2 19.2636C3.81818 23.4832 6.36364 29.7209 6.90909 31.0052L6.36364 38.5271C6.36364 38.7106 6.36364 38.7106 6.36364 38.8941L5.27273 50.6357H4.54545C3.45455 50.6357 2.54545 51.553 2.54545 52.6537V55.4057H1.27273C0.545455 55.4057 0 55.9561 0 56.6899C0 57.4238 0.545455 57.9742 1.27273 57.9742H2.72727V69.7158C2.72727 70.4496 3.27273 71 4 71C4.72727 71 5.27273 70.4496 5.27273 69.7158V57.6072H26V69.7158C26 70.4496 26.5455 71 27.2727 71C28 71 28.5455 70.4496 28.5455 69.7158V57.6072H30C30.7273 57.6072 31.2727 57.0568 31.2727 56.323C30.9091 55.7726 30.3636 55.2222 29.6364 55.2222ZM4.72727 10.6408H4.18182L3.63636 7.88889H5.27273L4.72727 10.6408ZM6.90909 24.4005C6.36364 23.1163 5.81818 21.6486 5.27273 20.5478C5.81818 21.2817 6.54545 22.3824 7.27273 23.4832C8 24.584 8.72727 25.5013 9.27273 26.2351C9.63636 26.6021 9.81818 26.969 10 27.1525C10.3636 27.5194 10.5455 28.0698 11.2727 27.8863H21.4545L21.6364 29.1705L18.7273 38.5271C18.5455 39.261 18.9091 39.8114 19.4545 39.9948L22.3636 40.9121L23.2727 50.6357H7.63636L8 47.3333L17.6364 43.6641C18.1818 43.4806 18.5455 42.7468 18.3636 42.1964C18.1818 41.646 17.4545 41.2791 16.9091 41.4625L8.18182 44.7649L8.54545 39.8114L16.3636 37.0594C16.9091 36.876 17.2727 36.1421 17.0909 35.5917C16.9091 35.0413 16.1818 34.6744 15.6364 34.8579L9.09091 37.2429L9.63636 31.1886C9.63636 31.1886 9.63636 31.1886 9.63636 31.0052C9.63636 30.8217 9.63636 30.6382 9.27273 30.0879C9.09091 29.7209 8.90909 29.354 8.72727 28.6202C8.18182 27.3359 7.45455 25.8682 6.90909 24.4005ZM25.8182 55.2222H5.09091V52.8372H25.8182V55.2222ZM9.45455 59.9922C8.72727 59.9922 8.18182 60.5426 8.18182 61.2765V67.5142C8.18182 68.2481 8.72727 68.7984 9.45455 68.7984C10.1818 68.7984 10.7273 68.2481 10.7273 67.5142V61.2765C10.7273 60.5426 10.1818 59.9922 9.45455 59.9922ZM15.4545 59.9922C14.7273 59.9922 14.1818 60.5426 14.1818 61.2765V67.5142C14.1818 68.2481 14.7273 68.7984 15.4545 68.7984C16.1818 68.7984 16.7273 68.2481 16.7273 67.5142V61.2765C16.7273 60.5426 16.1818 59.9922 15.4545 59.9922ZM21.4545 59.9922C20.7273 59.9922 20.1818 60.5426 20.1818 61.2765V67.5142C20.1818 68.2481 20.7273 68.7984 21.4545 68.7984C22.1818 68.7984 22.7273 68.2481 22.7273 67.5142V61.2765C22.7273 60.5426 22.1818 59.9922 21.4545 59.9922ZM15.4545 24.0336C17.8182 24.0336 20.1818 21.4651 20.9091 17.7959C21.4545 15.7778 20.9091 13.7597 19.8182 12.292C18.7273 11.0078 17.2727 10.2739 15.4545 10.2739C13.6364 10.2739 12.1818 11.0078 11.0909 12.4755C10 13.9432 9.45455 15.9612 10 17.9793C10.7273 21.4651 13.0909 24.0336 15.4545 24.0336ZM12.9091 13.9432C13.4545 13.2093 14.3636 12.6589 15.4545 12.6589C16.5455 12.6589 17.4545 13.0258 18 13.9432C18.7273 14.8605 18.9091 16.1447 18.7273 17.4289C18 20.1809 16.3636 21.6486 15.4545 21.6486C14.5455 21.6486 12.9091 20.1809 12.1818 17.2455C12 16.1447 12.1818 14.8605 12.9091 13.9432ZM4.54545 4.4031C5.27273 4.4031 5.81818 3.85271 5.81818 3.11886V1.28424C5.63636 0.550388 5.09091 0 4.54545 0C3.81818 0 3.27273 0.550388 3.27273 1.28424V3.30233C3.27273 3.85271 3.81818 4.4031 4.54545 4.4031ZM34 31.0052C34 30.6382 33.8182 30.4548 33.4545 30.0879L28 25.8682C27.6364 25.6848 27.2727 25.5013 26.9091 25.6848C26.5455 25.8682 26.1818 26.0517 26.1818 26.4186L23.4545 35.7752C23.2727 36.3256 23.6364 37.0594 24.1818 37.2429L27.2727 38.5271C27.4545 38.5271 27.4545 38.5271 27.6364 38.5271C28 38.5271 28.3636 38.3437 28.5455 38.1602L33.8182 32.1059C34 31.739 34 31.3721 34 31.0052ZM27.2727 35.9587L26.1818 35.5917L28.1818 29.1705L31.2727 31.5556L27.2727 35.9587ZM15.4545 9.17313C16.1818 9.17313 16.7273 8.62274 16.7273 7.88889V6.78811C16.7273 6.05426 16.1818 5.50388 15.4545 5.50388C14.7273 5.50388 14.1818 6.05426 14.1818 6.78811V7.88889C14.3636 8.62274 14.9091 9.17313 15.4545 9.17313ZM11.8182 10.0904C12.5455 10.0904 13.0909 9.54005 13.0909 8.8062V8.62274C13.0909 7.88889 12.5455 7.3385 11.8182 7.3385C11.0909 7.3385 10.7273 7.88889 10.7273 8.62274V8.98966C10.7273 9.54005 11.2727 10.0904 11.8182 10.0904ZM19.0909 10.0904C19.8182 10.0904 20.3636 9.54005 20.3636 8.8062V8.62274C20.3636 7.88889 19.8182 7.3385 19.0909 7.3385C18.3636 7.3385 17.8182 7.88889 17.8182 8.62274V8.98966C18 9.54005 18.5455 10.0904 19.0909 10.0904Z" fill="#A79582"/>
</svg>
