<svg width="22" height="71" viewBox="0 0 22 71" fill="none" xmlns="http://www.w3.org/2000/svg">
<g clip-path="url(#clip0)">
<path d="M21.8136 69.3316L14.356 55.6136C15.6611 54.6867 16.5933 53.0183 16.5933 51.3499C16.5933 49.4961 15.6611 47.8277 14.356 46.9008V24.6554C15.8475 23.7285 16.5933 22.0601 16.5933 20.2063C16.5933 17.611 14.7289 15.3864 12.3052 14.8303V1.11227C12.1187 0.556136 11.5594 0 11.0001 0C10.2543 0 9.88144 0.556136 9.88144 1.11227V14.6449C7.45771 15.201 5.5933 17.4256 5.5933 20.0209C5.5933 21.8747 6.52551 23.5431 7.83059 24.47V46.7154C6.33907 47.6423 5.5933 49.3107 5.5933 51.1645C5.5933 53.0183 6.52551 54.5013 7.83059 55.4282L0.372964 69.1462C8.2761e-05 69.7024 0.186523 70.4439 0.932286 70.8146C1.11873 71 1.30517 71 1.49161 71C1.86449 71 2.23737 70.8146 2.61025 70.4439L8.20347 60.248V69.8877C8.20347 70.4439 8.76279 71 9.32212 71C9.88144 71 10.4408 70.4439 10.4408 69.8877V56.7259C10.8136 56.7259 11.0001 56.7259 11.373 56.7259C11.7458 56.7259 11.9323 56.7259 12.3052 56.7259V69.8877C12.3052 70.4439 12.8645 71 13.4238 71C13.9831 71 14.5425 70.4439 14.5425 69.8877V60.248L20.1357 70.4439C20.3221 70.8146 20.695 71 21.2543 71C21.4408 71 21.6272 71 21.8136 70.8146C22.0001 70.6292 22.1865 69.8877 21.8136 69.3316ZM11.9323 34.4804H10.0679V31.5144H11.7458V34.4804H11.9323ZM10.0679 36.8903H11.7458V40.0418H10.0679V36.8903ZM11.0001 16.8695C12.678 16.8695 14.1696 18.3525 14.1696 20.0209C14.1696 21.6893 12.678 23.1723 11.0001 23.1723C9.32212 23.1723 7.83059 21.6893 7.83059 20.0209C7.83059 18.3525 9.13568 16.8695 11.0001 16.8695ZM11.0001 25.5822C11.373 25.5822 11.5594 25.5822 11.9323 25.5822V29.1044H10.0679V25.5822C10.4408 25.5822 10.6272 25.5822 11.0001 25.5822ZM10.0679 42.2663H11.7458V45.7885C11.373 45.7885 11.1865 45.7885 10.8136 45.7885C10.4408 45.7885 10.2543 45.7885 9.88144 45.7885V42.2663H10.0679ZM7.83059 51.1645C7.83059 49.4961 9.32212 48.0131 11.0001 48.0131C12.678 48.0131 14.1696 49.4961 14.1696 51.1645C14.1696 52.8329 12.678 54.3159 11.0001 54.3159C9.13568 54.3159 7.83059 52.8329 7.83059 51.1645Z" fill="#A79582"/>
</g>
<defs>
<clipPath id="clip0">
<rect width="22" height="71" fill="white"/>
</clipPath>
</defs>
</svg>
