<svg xmlns="http://www.w3.org/2000/svg" width="80" height="80" fill="none" viewBox="0 0 80 80">
    <rect width="79" height="79" x=".5" y=".5" fill="#A79582" fill-opacity=".1" stroke="#A79582" rx="2.5"/>
    <path fill="#A79582" d="M38.2 51h2.4L26.75 16.65 12.7 51h2.4l4.45-10.95h14.2L38.2 51zM20.35 38.05l6.35-15.8 6.25 15.8h-12.6zm41.347-7.45v3.55c-1.75-2.5-4.45-4-7.8-4-6.4 0-10.3 4.75-10.3 10.65 0 7.1 5.05 10.75 10.05 10.75 2.9 0 6-1.2 8.05-4.05v2.9c0 2.1-.2 10.2-8.25 10.2-4.35 0-7.55-2.6-7.9-6.85h-2.1c.25 5.65 4.7 8.75 10 8.75 6.4 0 10.25-4.4 10.25-12.1V30.6h-2zm-8 1.45c5 0 8.1 3.9 8.1 8.65 0 5-3.15 8.95-8.2 8.95-4.8 0-7.9-3.85-7.9-8.75 0-4.7 2.95-8.85 8-8.85z"/>
</svg>
