<?xml version="1.0" encoding="iso-8859-1"?>
<!-- Uploaded to: SVG Repo, www.svgrepo.com, Generator: SVG Repo Mixer Tools -->
<svg height="800px" width="800px" version="1.1" id="Layer_1" xmlns="http://www.w3.org/2000/svg" xmlns:xlink="http://www.w3.org/1999/xlink" 
	 viewBox="0 0 503.467 503.467" xml:space="preserve">
<g transform="translate(0.5 1)">
	<circle style="fill:#ECF4F7;" cx="251.234" cy="250.733" r="247.467"/>
	<path style="fill:#50DD8E;" d="M353.634,476.013c-31.573,14.507-65.707,22.187-102.4,22.187
		C114.7,498.2,3.767,387.267,3.767,250.733S114.7,3.267,251.234,3.267c46.08,0,89.6,12.8,127.147,34.987l-34.987,39.253
		c-27.307-14.507-58.88-23.04-92.16-23.04c-108.373,0-196.267,87.893-196.267,196.267c0,40.96,12.8,79.36,34.133,110.933l0,0
		l3.413,5.12c0.853,0.853,1.707,2.56,2.56,3.413l70.827,93.867L353.634,476.013z"/>
	<g>
		<path style="fill:#AAB1BA;" d="M447.5,395.8l2.56,1.707C404.834,458.094,332.3,498.2,251.234,498.2
			c-81.92,0-155.307-40.96-200.533-102.4l0,0H447.5z"/>
		<path style="fill:#AAB1BA;" d="M269.154,232.813c4.267,4.267,7.68,11.093,7.68,17.92c0,14.507-11.093,25.6-25.6,25.6
			c-14.507,0-25.6-11.093-25.6-25.6c0-14.507,11.093-25.6,25.6-25.6C258.914,225.133,264.887,227.693,269.154,232.813"/>
	</g>
</g>
<path style="fill:#51565F;" d="M251.734,503.467c-80.213,0-156.16-39.253-203.947-104.107c-0.853-0.853-1.707-2.56-0.853-4.267
	c0.853-1.707,2.56-2.56,4.267-2.56h354.133c2.56,0,4.267,1.707,4.267,4.267s-1.707,4.267-4.267,4.267h-345.6
	c46.933,58.88,117.76,93.867,192,93.867c133.973,0,243.2-109.227,243.2-243.2s-109.227-243.2-243.2-243.2
	c-133.973,0-243.2,109.227-243.2,243.2c0,38.4,8.533,75.093,26.453,109.227c0.853,1.707,0,4.267-1.707,5.973
	c-1.707,0.853-4.267,0-5.973-1.707C9.387,330.24,0,291.84,0,251.733C0,112.64,112.64,0,251.733,0s251.733,112.64,251.733,251.733
	S390.827,503.467,251.734,503.467z M89.6,366.933c-0.853,0-2.56-0.853-3.413-1.707C63.147,335.36,51.2,296.96,51.2,251.733
	C51.2,140.8,140.8,51.2,251.734,51.2c35.84,0,70.827,9.387,101.547,27.307c1.707,0.853,2.56,3.413,1.707,5.973
	c-0.853,1.707-3.413,2.56-5.973,1.707C320,69.12,285.867,59.734,251.734,59.734c-105.813,0-192,86.187-192,192
	c0,43.52,11.093,79.36,33.28,108.373c1.707,1.707,0.853,4.267-0.853,5.973C91.307,366.933,90.454,366.933,89.6,366.933z
	 M200.534,307.2c-0.853,0-2.56,0-3.413-0.853c-0.853-0.853-0.853-1.707-0.853-3.413s0-2.56,0.853-3.413l30.72-30.72
	c-3.413-5.12-5.973-11.093-5.973-17.92c0-16.213,13.653-29.867,29.867-29.867c6.827,0,12.8,2.56,17.92,5.973L394.241,102.4
	c1.707-1.707,4.267-1.707,5.973,0c0.853,0.853,0.853,1.707,0.853,3.413s0,2.56-0.853,3.413L275.627,233.813
	c3.413,5.12,5.973,11.093,5.973,17.92c0,16.213-13.653,29.867-29.867,29.867c-6.827,0-12.8-2.56-17.92-5.973l-30.72,30.72
	C203.094,307.2,201.387,307.2,200.534,307.2z M251.734,230.4c-11.947,0-21.333,9.387-21.333,21.333
	c0,11.947,9.387,21.333,21.333,21.333s21.333-9.387,21.333-21.333C273.067,239.787,263.68,230.4,251.734,230.4z M465.067,256
	h-34.133c-2.56,0-4.267-1.707-4.267-4.267c0-2.56,1.707-4.267,4.267-4.267h34.133c2.56,0,4.267,1.707,4.267,4.267
	C469.334,254.293,467.627,256,465.067,256z M424.96,209.92c-1.707,0-3.413-0.853-4.267-3.413v-0.853
	c0-1.707,0.853-3.413,3.413-4.267l33.28-8.533c2.56-0.853,4.267,0.853,5.12,3.413v0.853c0,1.707-0.853,3.413-3.413,4.267
	l-33.28,8.533C425.814,209.92,424.96,209.92,424.96,209.92z M407.04,166.4c-1.707,0-2.56-0.853-3.413-2.56
	c0-0.853-0.853-1.707-0.853-2.56c0-1.707,0.853-2.56,2.56-3.413L435.2,140.8c1.707-0.853,4.267-0.853,5.973,1.707
	c0,0.853,0.853,1.707,0.853,2.56c0,1.707-0.853,2.56-2.56,3.413L409.6,165.547C408.747,166.4,407.894,166.4,407.04,166.4z"/>
</svg>